<svg xmlns="http://www.w3.org/2000/svg" viewBox="0 0 155.3 163.6"><defs><style>.a{fill:#5478ba;}.b{fill:#82c341;}</style></defs><title>ProValens Logo Mark</title><path class="a" d="M51.6,66.7h3.5a7.4,7.4,0,0,0,7.4-7.3V54.8a12.7,12.7,0,0,0-3.8-9L36.5,23.6a11.2,11.2,0,0,0-15.9,0l-.7.7a11.2,11.2,0,0,0,0,15.9L42.6,63A12.8,12.8,0,0,0,51.6,66.7Z" transform="translate(-0.4)"/><path class="a" d="M93.7,59.4a7.4,7.4,0,0,0,7.4,7.3h2.7a12.6,12.6,0,0,0,9-3.7l19.9-19.9c4.1-4.1,4.8-10.9,1-15.4a11.2,11.2,0,0,0-16.6-.8L97.5,46.6a12.7,12.7,0,0,0-3.8,9Z" transform="translate(-0.4)"/><path class="a" d="M62.5,104.3a7.4,7.4,0,0,0-7.4-7.4H52.4a13.1,13.1,0,0,0-9,3.7L23.5,120.5c-4.1,4.2-4.8,10.9-1.1,15.4a11.3,11.3,0,0,0,16.7.8l19.6-19.6a13,13,0,0,0,3.8-9.1Z" transform="translate(-0.4)"/><path class="a" d="M104.5,96.9h-3.4a7.4,7.4,0,0,0-7.4,7.4v4.5a12.7,12.7,0,0,0,3.8,9l22.2,22.3a11.4,11.4,0,0,0,15.9,0l.7-.8a11.2,11.2,0,0,0,0-15.9l-22.7-22.8A13.3,13.3,0,0,0,104.5,96.9Z" transform="translate(-0.4)"/><path class="b" d="M55.1,93H11.7A11.3,11.3,0,0,1,.4,81.8h0A11.3,11.3,0,0,1,11.7,70.6H55.1A11.2,11.2,0,0,0,66.3,59.4V11.2A11.3,11.3,0,0,1,77.6,0h1A11.3,11.3,0,0,1,89.9,11.2V59.4a11.2,11.2,0,0,0,11.2,11.2h43.4a11.3,11.3,0,0,1,11.3,11.2h0A11.3,11.3,0,0,1,144.5,93H101.1a11.3,11.3,0,0,0-11.2,11.3v48.1a11.3,11.3,0,0,1-11.3,11.2h-1a11.3,11.3,0,0,1-11.3-11.2V104.3A11.3,11.3,0,0,0,55.1,93Z" transform="translate(-0.4)"/></svg>
